<svg id="Capa_1" enable-background="new 0 0 512 512" height="32px" viewBox="0 0 512 512" width="32px" xmlns="http://www.w3.org/2000/svg"><g><g><g><path d="m387 392c-8.284 0-15-6.716-15-15v-30c0-8.284 6.716-15 15-15s15 6.716 15 15v30c0 8.284-6.716 15-15 15z" fill="#fffa8c"/><path d="m402 377v-30c0-8.284-6.716-15-15-15v60c8.284 0 15-6.716 15-15z" fill="#ffc178"/><path d="m447.002 402.004c-1.572 0-3.172-.249-4.745-.773-7.859-2.62-12.106-11.114-9.487-18.974l10-30c2.621-7.858 11.117-12.105 18.974-9.487 7.859 2.62 12.106 11.114 9.487 18.974l-10 30c-2.096 6.284-7.949 10.26-14.229 10.26z" fill="#ffc178"/><path d="m326.998 402.004c-6.281 0-12.133-3.975-14.229-10.261l-10-30c-2.619-7.859 1.628-16.354 9.487-18.974 7.858-2.623 16.354 1.627 18.974 9.487l10 30c2.619 7.859-1.628 16.354-9.487 18.974-1.573.525-3.173.774-4.745.774z" fill="#fffa8c"/><path d="m437 422h-100c-24.813 0-45 20.187-45 45v30h190v-30c0-24.813-20.187-45-45-45z" fill="#c8661c"/><path d="m437 422h-50v75h95v-30c0-24.813-20.187-45-45-45z" fill="#8e4712"/><path d="m497 512h-220c-8.284 0-15-6.716-15-15s6.716-15 15-15h220c8.284 0 15 6.716 15 15s-6.716 15-15 15z" fill="#d8aa5c"/><path d="m497 482h-110v30h110c8.284 0 15-6.716 15-15s-6.716-15-15-15z" fill="#c8661c"/></g></g><g><path d="m15.928 438.657c-10.742-10.741-16.388-25.019-15.899-40.202.49-15.183 7.043-29.067 18.454-39.095l137.815-121.109c5.941-5.221 14.916-4.932 20.508.661l38.868 38.868c5.593 5.593 5.882 14.567.661 20.508l-121.108 137.814c-10.029 11.411-23.913 17.965-39.096 18.455-15.183.488-29.461-5.158-40.203-15.9z" fill="#6b61b1"/><path d="m95.227 436.102 121.108-137.815c5.221-5.941 4.932-14.916-.661-20.508l-19.434-19.434-180.312 180.312c10.742 10.742 25.019 16.388 40.203 15.899 15.183-.489 29.067-7.043 39.096-18.454z" fill="#453d81"/><path d="m215.696 299.014-60.125-60.125 63.981-56.227 52.371 52.371z" fill="#fffa8c"/><path d="m271.924 235.034-26.186-26.186-60.104 60.104 30.062 30.062z" fill="#ffc178"/><path d="m312.913 283.094-141.421-141.421 91.924-91.924 141.421 141.421z" fill="#c8661c"/><path d="m258.52 151.777h130v100h-130z" fill="#8e4712" transform="matrix(.707 -.707 .707 .707 -47.921 287.862)"/><path d="m143.207 155.815-14.142-14.142c-9.763-9.763-9.763-25.592 0-35.355l98.995-98.996c9.763-9.763 25.592-9.763 35.355 0l14.142 14.142c9.763 9.763 9.763 25.592 0 35.355l-98.995 98.995c-9.762 9.764-25.592 9.764-35.355.001z" fill="#d8aa5c"/><path d="m312.913 325.52-14.142-14.142c-9.763-9.763-9.763-25.592 0-35.355l98.995-98.995c9.763-9.763 25.592-9.763 35.355 0l14.142 14.142c9.763 9.763 9.763 25.592 0 35.355l-98.995 98.995c-9.763 9.763-25.592 9.763-35.355 0z" fill="#c8661c"/></g></g></svg>